<?xml version="1.0" encoding="UTF-8"?>
<svg id="_Слой_1" data-name="Слой_1" xmlns="http://www.w3.org/2000/svg" version="1.1" viewBox="0 0 595.3 841.9">
  <!-- Generator: Adobe Illustrator 29.2.1, SVG Export Plug-In . SVG Version: 2.1.0 Build 116)  -->
  <defs>
    <style>
      .st0 {
        stroke-width: 7px;
      }

      .st0, .st1 {
        fill: none;
        stroke: #020202;
        stroke-miterlimit: 10;
      }

      .st1 {
        stroke-width: 13px;
      }
    </style>
  </defs>
  <path class="st1" d="M149.6,446.4c2.2.8,2.3-16.8,2.3-17.8,12-43,13-86,31-126,9-19,23-33,40-47,4.8-4,19.1-13.9,40-21,15.1-5.1,26.6-6.3,36.9-7.6,0,0,31.6-3.8,75.1-12.4,0,0,82.2-18.1,124-53,4.9-4.1,9-9,9-9,2.8-3,5.2-5.7,7.2-8.2,3.8-4.9,6-7.8,6-7.8,0,0-.3.5-.3.5,0,0,1.9-2,6.6-7.4,2.4,12.8-1.2,1.4,0,0,2.7,14,5.3,37.8-1.5,65.8-4.5,18.6-11.8,33.1-17.9,43.2-1,1.6-2.1,3.2-3.1,4.8-15,25-39,41-64,54-43,21-90,19-137,26-33,5-63,11-92,30-23,15-41,33-53,57-1,6.1-2.1,12.2-3.1,18.3"/>
  <path class="st0" d="M523.4,143.3s-16,46.6-43,71.8c-19.3,18-63.4,39.2-116.6,51.9-15.4,3.7-42.2,8.4-58.7,10.3-64.7,7.8-128.6,64.5-141.2,94.1"/>
  <path class="st1" d="M127.6,565.1c12.4-23.6,27.6-38.1,37.3-46,22.4-18.2,45.1-25.3,62.5-30.7,18.6-5.8,35.8-8.3,42.8-9.4,7.9-1.2,16.7-2.2,27.3-2.8,52.4-2.9,63.3-9.4,68-11.3,10.5-4.3,20.5-10.5,27.5-14.8,2.5-1.6,5.1-3.2,8-5.8.9-.8,2.5-2.2,8-8.5,4.2-4.7,6.2-7.1,7.7-9.1,3.2-4.3,5.4-8.1,7.2-11.3,1.1-1.9,2.3-3.9,3.6-6.5,2.1-4.4,4-9.1,5.5-14.3,6.2-21.6,6.2-37.8,6.2-37.8,0,0-20.2,18.4-50.4,23.1-30.2,4.7-87.6,7.6-106.2,7.8s-54.7,6.6-74,18.2c-19.3,11.6-52.4,33.4-59.9,59.5-3.7,12.9-10.1,39.8-10.1,40.1h0"/>
  <path class="st0" d="M431.8,368s-17.2,49.1-82.8,59.2c-65.7,10.1-120.1,13.2-150.4,31.6-29.6,18-58.8,50.7-62.9,73.6"/>
  <path class="st1" d="M312.2,321.9s-40.8,27.2-36.5,71.7"/>
  <line class="st1" x1="153" y1="428.6" x2="108" y2="668.2"/>
  <path class="st1" d="M258.3,482.2c-6.2,40.4-18.5,99-42.4,139.3-2.2,3.7-5,8.2-9.6,13.1-28.1,30.5-75.1,29.4-98.9,26.9"/>
  <path class="st0" d="M209,495.5c-1.1,25.5-6.1,46.2-10.7,60.7-7.2,22.6-16,38.5-19,43.6-4.5,7.9-13.7,23.6-29.5,39.5-7.9,7.9-19,18.1-24.5,22.1"/>
  <line class="st1" x1="156.2" y1="425.3" x2="153.9" y2="449.7"/>
</svg>