<?xml version="1.0" encoding="UTF-8"?>
<svg version="1.1" xmlns="http://www.w3.org/2000/svg" width="1817" height="2356">
<path d="M0 0 C2 7 2 7 2 14 C2.66 14 3.32 14 4 14 C4.33 18.95 4.66 23.9 5 29 C5.66 31.31 6.32 33.62 7 36 C8.20242196 50.68516019 8.15458201 65.37722915 8.13037109 80.1003418 C8.12469105 83.59945327 8.12804088 87.09848832 8.13382339 90.59759712 C8.15492486 105.757723 7.99468512 120.86787116 7 136 C6.67 136.33 6.34 136.66 6 137 C5.34 144.59 4.68 152.18 4 160 C3.67 160 3.34 160 3 160 C0.78573137 168.09820646 0.78573137 168.09820646 0 177 C-0.66 178.65 -1.32 180.3 -2 182 C-2.33 185.96 -2.66 189.92 -3 194 C-3.66 194 -4.32 194 -5 194 C-5 196.64 -5 199.28 -5 202 C-6.485 205.465 -6.485 205.465 -8 209 C-8.66 212.63 -9.32 216.26 -10 220 C-10.66 220 -11.32 220 -12 220 C-12 221.65 -12 223.3 -12 225 C-12.66 225 -13.32 225 -14 225 C-14.33 228.63 -14.66 232.26 -15 236 C-15.66 236 -16.32 236 -17 236 C-17 237.98 -17 239.96 -17 242 C-17.99 242.99 -18.98 243.98 -20 245 C-20.66 248.96 -21.32 252.92 -22 257 C-22.66 257.99 -23.32 258.98 -24 260 C-24.66 260 -25.32 260 -26 260 C-26 261.65 -26 263.3 -26 265 C-26.66 265 -27.32 265 -28 265 C-28.33 267.31 -28.66 269.62 -29 272 C-29.66 272 -30.32 272 -31 272 C-31.33 273.32 -31.66 274.64 -32 276 C-32.26554687 276.58007812 -32.53109375 277.16015625 -32.8046875 277.7578125 C-34.77561334 282.11686745 -36.59049252 286.41910068 -38 291 C-38.66 291 -39.32 291 -40 291 C-40 292.32 -40 293.64 -40 295 C-40.66 295.33 -41.32 295.66 -42 296 C-42.33 297.32 -42.66 298.64 -43 300 C-43.66 300 -44.32 300 -45 300 C-45 300.99 -45 301.98 -45 303 C-45.66 303 -46.32 303 -47 303 C-47 304.32 -47 305.64 -47 307 C-47.66 307.33 -48.32 307.66 -49 308 C-49.66 309.98 -50.32 311.96 -51 314 C-52.32 316.31 -53.64 318.62 -55 321 C-55.66 321 -56.32 321 -57 321 C-57 321.99 -57 322.98 -57 324 C-57.66 324 -58.32 324 -59 324 C-59.4021875 325.0209375 -59.4021875 325.0209375 -59.8125 326.0625 C-61.16053306 329.39710809 -62.57536298 332.69743237 -64 336 C-64.99 336 -65.98 336 -67 336 C-67.66 337.98 -68.32 339.96 -69 342 C-69.66 342.99 -70.32 343.98 -71 345 C-71.66 345 -72.32 345 -73 345 C-73.99 347.97 -74.98 350.94 -76 354 C-76.99 354.33 -77.98 354.66 -79 355 C-79.99 356.98 -80.98 358.96 -82 361 C-83.65 361 -85.3 361 -87 361 C-87 361.99 -87 362.98 -87 364 C-87.66 364 -88.32 364 -89 364 C-89 364.66 -89 365.32 -89 366 C-89.99 366 -90.98 366 -92 366 C-92.33 367.65 -92.66 369.3 -93 371 C-93.66 371 -94.32 371 -95 371 C-95 371.66 -95 372.32 -95 373 C-95.66 373 -96.32 373 -97 373 C-97.66 374.65 -98.32 376.3 -99 378 C-99.66 378 -100.32 378 -101 378 C-101.33 378.99 -101.66 379.98 -102 381 C-102.66 381 -103.32 381 -104 381 C-104 381.66 -104 382.32 -104 383 C-104.66 383 -105.32 383 -106 383 C-106.33 384.32 -106.66 385.64 -107 387 C-111 390 -111 390 -113 390 C-113.33 391.32 -113.66 392.64 -114 394 C-114.99 394.66 -115.98 395.32 -117 396 C-117.33 396.99 -117.66 397.98 -118 399 C-118.99 399 -119.98 399 -121 399 C-121 399.66 -121 400.32 -121 401 C-125 405 -125 405 -128 407 C-129.32 408.32 -130.64 409.64 -132 411 C-132.66 411 -133.32 411 -134 411 C-134 411.66 -134 412.32 -134 413 C-134.99 413 -135.98 413 -137 413 C-137.66 414.65 -138.32 416.3 -139 418 C-141.9465385 419.80066242 -144.88801935 421.50163895 -148 423 C-148 423.66 -148 424.32 -148 425 C-148.99 425 -149.98 425 -151 425 C-151.66 426.65 -152.32 428.3 -153 430 C-154.32 430 -155.64 430 -157 430 C-157 430.66 -157 431.32 -157 432 C-158.98 432.495 -158.98 432.495 -161 433 C-161 433.66 -161 434.32 -161 435 C-161.99 435 -162.98 435 -164 435 C-164 435.66 -164 436.32 -164 437 C-164.99 437 -165.98 437 -167 437 C-167 437.66 -167 438.32 -167 439 C-171 442 -171 442 -174 442 C-174.66 443.32 -175.32 444.64 -176 446 C-182 449 -182 449 -184 449 C-184 449.66 -184 450.32 -184 451 C-189 454 -189 454 -193 454 C-193.33 455.32 -193.66 456.64 -194 458 C-196.31 458.33 -198.62 458.66 -201 459 C-201 459.66 -201 460.32 -201 461 C-201.66 461 -202.32 461 -203 461 C-203 461.66 -203 462.32 -203 463 C-203.66 463 -204.32 463 -205 463 C-205 463.66 -205 464.32 -205 465 C-208 466 -211 467 -214 468 C-214 468.66 -214 469.32 -214 470 C-214.99 470 -215.98 470 -217 470 C-217 470.66 -217 471.32 -217 472 C-219.31 472.33 -221.62 472.66 -224 473 C-224 473.66 -224 474.32 -224 475 C-224.99 475 -225.98 475 -227 475 C-227 475.66 -227 476.32 -227 477 C-229.31 477.66 -231.62 478.32 -234 479 C-234.99 479.99 -235.98 480.98 -237 482 C-240 484 -240 484 -243.3125 484.9375 C-245.55407994 485.58337897 -247.7869351 486.2623117 -250 487 C-250 487.66 -250 488.32 -250 489 C-251.98 489 -253.96 489 -256 489 C-256 489.66 -256 490.32 -256 491 C-262 494 -262 494 -268 494 C-268 494.66 -268 495.32 -268 496 C-277.77272727 501 -277.77272727 501 -284 501 C-284 501.66 -284 502.32 -284 503 C-292 506 -292 506 -299 506 C-299 506.66 -299 507.32 -299 508 C-300.32 508 -301.64 508 -303 508 C-303 508.66 -303 509.32 -303 510 C-307.95 511.32 -312.9 512.64 -318 514 C-319.32 514.99 -320.64 515.98 -322 517 C-322.80824219 517.13277344 -323.61648438 517.26554688 -324.44921875 517.40234375 C-325.51785156 517.57894531 -326.58648438 517.75554688 -327.6875 517.9375 C-328.74324219 518.11152344 -329.79898438 518.28554688 -330.88671875 518.46484375 C-333.60249604 518.93167121 -336.30124235 519.44422616 -339 520 C-339 520.66 -339 521.32 -339 522 C-340.65 522 -342.3 522 -344 522 C-344 522.66 -344 523.32 -344 524 C-344.88042969 524.13277344 -345.76085938 524.26554688 -346.66796875 524.40234375 C-347.82941406 524.57894531 -348.99085938 524.75554688 -350.1875 524.9375 C-351.33605469 525.11152344 -352.48460937 525.28554688 -353.66796875 525.46484375 C-356.46325212 525.91379313 -359.22933586 526.42082162 -362 527 C-362 527.66 -362 528.32 -362 529 C-363.98 529 -365.96 529 -368 529 C-368 529.66 -368 530.32 -368 531 C-373.28 531.66 -378.56 532.32 -384 533 C-384.33 533.33 -384.66 533.66 -385 534 C-386.98 534 -388.96 534 -391 534 C-391 534.66 -391 535.32 -391 536 C-394.96 536.33 -398.92 536.66 -403 537 C-406.96 538.32 -410.92 539.64 -415 541 C-419.29 541 -423.58 541 -428 541 C-428 541.66 -428 542.32 -428 543 C-428.95519531 543.12117187 -429.91039062 543.24234375 -430.89453125 543.3671875 C-443.85628679 543.93333674 -443.85628679 543.93333674 -455 548 C-460.61 548.33 -466.22 548.66 -472 549 C-472 549.33 -472 549.66 -472 550 C-478.27 550.66 -484.54 551.32 -491 552 C-491.66 552.33 -492.32 552.66 -493 553 C-502.57 553 -512.14 553 -522 553 C-522 553.66 -522 554.32 -522 555 C-525.3 555 -528.6 555 -532 555 C-532 555.66 -532 556.32 -532 557 C-539.93095202 559.64365067 -548.64866549 558.62039389 -557 559 C-557.33 559.33 -557.66 559.66 -558 560 C-566.25 560 -574.5 560 -583 560 C-583 560.99 -583 561.98 -583 563 C-586 565 -586 565 -596 565 C-596 565.66 -596 566.32 -596 567 C-596.99 567 -597.98 567 -599 567 C-599 567.66 -599 568.32 -599 569 C-602.3 569.99 -605.6 570.98 -609 572 C-609 572.66 -609 573.32 -609 574 C-609.66 574 -610.32 574 -611 574 C-611 574.66 -611 575.32 -611 576 C-615.455 577.485 -615.455 577.485 -620 579 C-620.33 579.66 -620.66 580.32 -621 581 C-621.66 581 -622.32 581 -623 581 C-623 581.66 -623 582.32 -623 583 C-624.65 583.66 -626.3 584.32 -628 585 C-628.66 585.99 -629.32 586.98 -630 588 C-634.455 589.485 -634.455 589.485 -639 591 C-639.33 592.32 -639.66 593.64 -640 595 C-641.65 595.66 -643.3 596.32 -645 597 C-645.66 597.99 -646.32 598.98 -647 600 C-648.32 600 -649.64 600 -651 600 C-651 600.66 -651 601.32 -651 602 C-651.99 602.99 -652.98 603.98 -654 605 C-654.66 605 -655.32 605 -656 605 C-656 605.66 -656 606.32 -656 607 C-656.99 607 -657.98 607 -659 607 C-659 607.66 -659 608.32 -659 609 C-659.66 609 -660.32 609 -661 609 C-661.33 609.99 -661.66 610.98 -662 612 C-662.66 612 -663.32 612 -664 612 C-664 612.66 -664 613.32 -664 614 C-664.66 614 -665.32 614 -666 614 C-666 614.99 -666 615.98 -666 617 C-666.99 617 -667.98 617 -669 617 C-669.66 618.98 -670.32 620.96 -671 623 C-672.32 623.33 -673.64 623.66 -675 624 C-675 625.32 -675 626.64 -675 628 C-676.32 628.99 -677.64 629.98 -679 631 C-679.33 632.32 -679.66 633.64 -680 635 C-680.99 635.33 -681.98 635.66 -683 636 C-684.32 638.97 -685.64 641.94 -687 645 C-687.66 645 -688.32 645 -689 645 C-689.33 646.32 -689.66 647.64 -690 649 C-690.66 649 -691.32 649 -692 649 C-692 649.99 -692 650.98 -692 652 C-692.66 652 -693.32 652 -694 652 C-694 652.66 -694 653.32 -694 654 C-694.66 654 -695.32 654 -696 654 C-696.33 656.64 -696.66 659.28 -697 662 C-697.66 662 -698.32 662 -699 662 C-699 662.66 -699 663.32 -699 664 C-699.66 664 -700.32 664 -701 664 C-701.99 667.96 -702.98 671.92 -704 676 C-704.66 676 -705.32 676 -706 676 C-706 677.32 -706 678.64 -706 680 C-706.66 680 -707.32 680 -708 680 C-708 682.31 -708 684.62 -708 687 C-708.99 689.31 -709.98 691.62 -711 694 C-711.66 694 -712.32 694 -713 694 C-713.33 696.64 -713.66 699.28 -714 702 C-714.99 704.97 -715.98 707.94 -717 711 C-717.33 713.31 -717.66 715.62 -718 718 C-718.66 718 -719.32 718 -720 718 C-720 721.96 -720 725.92 -720 730 C-720.66 730 -721.32 730 -722 730 C-722.33 734.95 -722.66 739.9 -723 745 C-723.33 745 -723.66 745 -724 745 C-724.33 747.31 -724.66 749.62 -725 752 C-725.66 753.32 -726.32 754.64 -727 756 C-717.1 756 -707.2 756 -697 756 C-697 755.34 -697 754.68 -697 754 C-680.67033697 753.2239695 -664.33766181 752.58255134 -648 752 C-647.34 751.67 -646.68 751.34 -646 751 C-619.27 750.67 -592.54 750.34 -565 750 C-563.02 749.67 -561.04 749.34 -559 749 C-557.64013079 748.87012832 -556.27787612 748.76184535 -554.9140625 748.68359375 C-554.21152344 748.64169922 -553.50898437 748.59980469 -552.78515625 748.55664062 C-552.07230469 748.51732422 -551.35945313 748.47800781 -550.625 748.4375 C-549.52091797 748.37272461 -549.52091797 748.37272461 -548.39453125 748.30664062 C-546.59651932 748.20156201 -544.79828042 748.10037907 -543 748 C-543 747.67 -543 747.34 -543 747 C-541.3243103 746.90690613 -539.64862061 746.81381226 -537.97293091 746.72071838 C-537.24194183 746.68010788 -536.51095276 746.63949738 -535.7578125 746.59765625 C-527.79199219 746.15511068 -519.82617188 745.7125651 -511.86035156 745.27001953 C-511.06745728 745.22596985 -510.27456299 745.18192017 -509.4576416 745.13653564 C-508.64661987 745.09147888 -507.83559814 745.04642212 -507 745 C-506.14257202 744.95236511 -505.28514404 744.90473022 -504.4017334 744.85565186 C-503.53922974 744.80773499 -502.67672607 744.75981812 -501.78808594 744.71044922 C-500.53389359 744.64077187 -500.53389359 744.64077187 -499.25436401 744.56968689 C-498.44597076 744.52477615 -497.63757751 744.47986542 -496.8046875 744.43359375 C-496.02022247 744.39001236 -495.23575745 744.34643097 -494.42752075 744.30152893 C-492.61834717 744.20101929 -490.80917358 744.10050964 -489 744 C-489 743.34 -489 742.68 -489 742 C-485.04 741.67 -481.08 741.34 -477 741 C-477 740.67 -477 740.34 -477 740 C-468.09 739.34 -459.18 738.68 -450 738 C-449.67 737.67 -449.34 737.34 -449 737 C-446.36 737 -443.72 737 -441 737 C-441 736.34 -441 735.68 -441 735 C-437.7 734.67 -434.4 734.34 -431 734 C-430.34 733.67 -429.68 733.34 -429 733 C-424.05 732.67 -419.1 732.34 -414 732 C-414 731.34 -414 730.68 -414 730 C-411.36 730 -408.72 730 -406 730 C-406 729.34 -406 728.68 -406 728 C-399 727 -392 726 -385 725 C-385 724.34 -385 723.68 -385 723 C-383.02 723 -381.04 723 -379 723 C-379 722.34 -379 721.68 -379 721 C-374.71 720.34 -370.42 719.68 -366 719 C-365.01 718.67 -364.02 718.34 -363 718 C-363 717.34 -363 716.68 -363 716 C-360.03 715.67 -357.06 715.34 -354 715 C-354 714.67 -354 714.34 -354 714 C-345 711 -345 711 -339 711 C-339 710.34 -339 709.68 -339 709 C-330 706 -330 706 -327 706 C-327 705.34 -327 704.68 -327 704 C-325.02 704 -323.04 704 -321 704 C-321 703.34 -321 702.68 -321 702 C-314 699 -314 699 -309 699 C-309 698.34 -309 697.68 -309 697 C-308.01 697 -307.02 697 -306 697 C-306 696.34 -306 695.68 -306 695 C-305.34 695 -304.68 695 -304 695 C-303.67 694.01 -303.34 693.02 -303 692 C-301.68 692 -300.36 692 -299 692 C-299 691.34 -299 690.68 -299 690 C-298.01 690 -297.02 690 -296 690 C-296 689.34 -296 688.68 -296 688 C-290 685 -290 685 -286 685 C-286 684.34 -286 683.68 -286 683 C-285.01 683 -284.02 683 -283 683 C-283 682.34 -283 681.68 -283 681 C-280.69 680.01 -278.38 679.02 -276 678 C-275.01 677.01 -274.02 676.02 -273 675 C-271.35 673.68 -269.7 672.36 -268 671 C-267.67 670.34 -267.34 669.68 -267 669 C-261 666 -261 666 -257 666 C-255 669 -255 669 -255 676 C-255.33 676.33 -255.66 676.66 -256 677 C-256.66 685.91 -257.32 694.82 -258 704 C-258.66 704 -259.32 704 -260 704 C-260 706.97 -260 709.94 -260 713 C-261.64206443 722.33787308 -263.28799943 731.67463217 -265 741 C-265.66 741 -266.32 741 -267 741 C-267 744.63 -267 748.26 -267 752 C-268.22556737 756.37702633 -269.53060547 760.69677317 -271 765 C-271.33 767.31 -271.66 769.62 -272 772 C-272.66 772 -273.32 772 -274 772 C-274 773.65 -274 775.3 -274 777 C-274.66 777 -275.32 777 -276 777 C-276 778.65 -276 780.3 -276 782 C-276.66 783.65 -277.32 785.3 -278 787 C-278.33 788.65 -278.66 790.3 -279 792 C-279.66 792 -280.32 792 -281 792 C-281 794.31 -281 796.62 -281 799 C-281.99 799 -282.98 799 -284 799 C-284 801.31 -284 803.62 -284 806 C-284.66 806 -285.32 806 -286 806 C-286 807.65 -286 809.3 -286 811 C-286.66 812.32 -287.32 813.64 -288 815 C-288.66 815 -289.32 815 -290 815 C-290.33 817.64 -290.66 820.28 -291 823 C-291.66 824.32 -292.32 825.64 -293 827 C-293.66 827 -294.32 827 -295 827 C-295.99 829.97 -296.98 832.94 -298 836 C-299.98 839.3 -301.96 842.6 -304 846 C-304.33 847.32 -304.66 848.64 -305 850 C-305.66 850 -306.32 850 -307 850 C-307.66 852.31 -308.32 854.62 -309 857 C-309.99 857.99 -310.98 858.98 -312 860 C-312.66 860 -313.32 860 -314 860 C-314.33 861.65 -314.66 863.3 -315 865 C-315.66 865 -316.32 865 -317 865 C-317 866.32 -317 867.64 -317 869 C-317.66 869 -318.32 869 -319 869 C-319.309375 869.78375 -319.61875 870.5675 -319.9375 871.375 C-321 874 -321 874 -322 876 C-322.66 876 -323.32 876 -324 876 C-324 876.66 -324 877.32 -324 878 C-324.66 878 -325.32 878 -326 878 C-326.33 879.65 -326.66 881.3 -327 883 C-327.99 883.99 -328.98 884.98 -330 886 C-330.33 886.66 -330.66 887.32 -331 888 C-331.66 888 -332.32 888 -333 888 C-333 888.66 -333 889.32 -333 890 C-333.66 890 -334.32 890 -335 890 C-335 890.99 -335 891.98 -335 893 C-335.66 893 -336.32 893 -337 893 C-337.33 894.32 -337.66 895.64 -338 897 C-338.66 897 -339.32 897 -340 897 C-340.33 897.99 -340.66 898.98 -341 900 C-341.66 900 -342.32 900 -343 900 C-343.66 901.65 -344.32 903.3 -345 905 C-345.99 905 -346.98 905 -348 905 C-348 905.66 -348 906.32 -348 907 C-348.66 907 -349.32 907 -350 907 C-350 907.99 -350 908.98 -350 910 C-350.66 910 -351.32 910 -352 910 C-352 910.66 -352 911.32 -352 912 C-352.99 912 -353.98 912 -355 912 C-355.33 913.32 -355.66 914.64 -356 916 C-357.65 916.99 -359.3 917.98 -361 919 C-361.66 920.32 -362.32 921.64 -363 923 C-364.65 923.33 -366.3 923.66 -368 924 C-368 925.32 -368 926.64 -368 928 C-370.31 928.99 -372.62 929.98 -375 931 C-375.33 931.66 -375.66 932.32 -376 933 C-376.66 933 -377.32 933 -378 933 C-378 933.66 -378 934.32 -378 935 C-379.65 935.99 -381.3 936.98 -383 938 C-383.33 938.66 -383.66 939.32 -384 940 C-384.66 940 -385.32 940 -386 940 C-386 940.66 -386 941.32 -386 942 C-387.98 942.66 -389.96 943.32 -392 944 C-392.33 944.99 -392.66 945.98 -393 947 C-399 950 -399 950 -401 950 C-401 950.66 -401 951.32 -401 952 C-401.66 952 -402.32 952 -403 952 C-403 952.66 -403 953.32 -403 954 C-404.98 954 -406.96 954 -409 954 C-409.33 954.99 -409.66 955.98 -410 957 C-411.98 957.99 -413.96 958.98 -416 960 C-417.65 961.32 -419.3 962.64 -421 964 C-422.32 964 -423.64 964 -425 964 C-425 964.66 -425 965.32 -425 966 C-426.32 966 -427.64 966 -429 966 C-429 966.66 -429 967.32 -429 968 C-434 971 -434 971 -440 971 C-440 971.66 -440 972.32 -440 973 C-440.66 973 -441.32 973 -442 973 C-442 973.66 -442 974.32 -442 975 C-451 978 -451 978 -455 978 C-455 978.66 -455 979.32 -455 980 C-456.32 980 -457.64 980 -459 980 C-459 980.66 -459 981.32 -459 982 C-467 983 -467 983 -472 983 C-472 983.66 -472 984.32 -472 985 C-473.32 985 -474.64 985 -476 985 C-476 985.66 -476 986.32 -476 987 C-476.74765625 987.13277344 -477.4953125 987.26554687 -478.265625 987.40234375 C-479.25046875 987.57894531 -480.2353125 987.75554688 -481.25 987.9375 C-482.22453125 988.11152344 -483.1990625 988.28554687 -484.203125 988.46484375 C-486.49721795 988.90379729 -488.74291971 989.40348592 -491 990 C-491 990.66 -491 991.32 -491 992 C-492.65 992.33 -494.3 992.66 -496 993 C-496 993.33 -496 993.66 -496 994 C-500.29 994.66 -504.58 995.32 -509 996 C-509.33 996.33 -509.66 996.66 -510 997 C-511.65 997 -513.3 997 -515 997 C-515 997.66 -515 998.32 -515 999 C-517.31 999.33 -519.62 999.66 -522 1000 C-522 1000.33 -522 1000.66 -522 1001 C-526.29 1001.33 -530.58 1001.66 -535 1002 C-535 1002.66 -535 1003.32 -535 1004 C-537.64 1004 -540.28 1004 -543 1004 C-543 1004.66 -543 1005.32 -543 1006 C-546.96 1006 -550.92 1006 -555 1006 C-555 1006.66 -555 1007.32 -555 1008 C-558.96 1008.66 -562.92 1009.32 -567 1010 C-567.33 1010.33 -567.66 1010.66 -568 1011 C-574.6 1011 -581.2 1011 -588 1011 C-588 1011.66 -588 1012.32 -588 1013 C-593.28 1013.66 -598.56 1014.32 -604 1015 C-604.33 1015.33 -604.66 1015.66 -605 1016 C-621.70225447 1017.45086004 -638.2336076 1018.31620934 -655 1018 C-655 1018.66 -655 1019.32 -655 1020 C-655.60134766 1020.01981934 -656.20269531 1020.03963867 -656.82226562 1020.06005859 C-668.16617416 1020.44804942 -679.44940644 1020.9835297 -690.75 1022.0625 C-704.15709235 1023.31772777 -717.54702224 1023.19501417 -731 1023 C-731 1023.66 -731 1024.32 -731 1025 C-734.96 1025 -738.92 1025 -743 1025 C-743 1025.66 -743 1026.32 -743 1027 C-751.11035004 1029.02758751 -759.64950485 1028.60235737 -768 1029 C-768.66 1029.33 -769.32 1029.66 -770 1030 C-774.29 1030 -778.58 1030 -783 1030 C-783 1030.66 -783 1031.32 -783 1032 C-783.66 1032.66 -784.32 1033.32 -785 1034 C-786.32 1034 -787.64 1034 -789 1034 C-789 1039.61 -789 1045.22 -789 1051 C-789.66 1051 -790.32 1051 -791 1051 C-791 1053.97 -791 1056.94 -791 1060 C-793 1073 -793 1073 -795 1080 C-795.33 1087.92 -795.66 1095.84 -796 1104 C-796.66 1104 -797.32 1104 -798 1104 C-798 1106.31 -798 1108.62 -798 1111 C-798.33 1111.33 -798.66 1111.66 -799 1112 C-800.41781652 1118.69532652 -800.41781652 1118.69532652 -801.18359375 1125.47265625 C-801.26806989 1127.00261297 -801.35271427 1128.53256041 -801.4375 1130.0625 C-801.49647461 1131.19075195 -801.49647461 1131.19075195 -801.55664062 1132.34179688 C-801.81580719 1136.94698741 -802.2799421 1141.44366724 -803 1146 C-803.66 1146 -804.32 1146 -805 1146 C-805 1149.96 -805 1153.92 -805 1158 C-805.66 1158 -806.32 1158 -807 1158 C-806.98839844 1158.6084375 -806.97679687 1159.216875 -806.96484375 1159.84375 C-806.87817105 1168.26338399 -807.4102566 1176.60668764 -808 1185 C-808.33 1185 -808.66 1185 -809 1185 C-809.33 1186.98 -809.66 1188.96 -810 1191 C-810.66 1191 -811.32 1191 -812 1191 C-812 1193.31 -812 1195.62 -812 1198 C-812.66 1198 -813.32 1198 -814 1198 C-813.67 1198.99 -813.34 1199.98 -813 1201 C-813.66 1208.26 -814.32 1215.52 -815 1223 C-815.66 1223 -816.32 1223 -817 1223 C-817 1224.98 -817 1226.96 -817 1229 C-817.33 1229.33 -817.66 1229.66 -818 1230 C-818.33 1234.29 -818.66 1238.58 -819 1243 C-819.66 1243 -820.32 1243 -821 1243 C-821.33 1247.29 -821.66 1251.58 -822 1256 C-822.66 1256 -823.32 1256 -824 1256 C-824 1257.65 -824 1259.3 -824 1261 C-824.33 1261.33 -824.66 1261.66 -825 1262 C-825.66 1266.29 -826.32 1270.58 -827 1275 C-827.66 1277.31 -828.32 1279.62 -829 1282 C-829.66 1282 -830.32 1282 -831 1282 C-831 1284.97 -831 1287.94 -831 1291 C-831.66 1292.98 -832.32 1294.96 -833 1297 C-833.66 1297 -834.32 1297 -835 1297 C-834.67 1298.32 -834.34 1299.64 -834 1301 C-835.485 1304.465 -835.485 1304.465 -837 1308 C-837.33 1310.31 -837.66 1312.62 -838 1315 C-838.66 1315 -839.32 1315 -840 1315 C-840.33 1319.62 -840.66 1324.24 -841 1329 C-841.66 1330.32 -842.32 1331.64 -843 1333 C-843.66 1334.98 -844.32 1336.96 -845 1339 C-845.66 1339 -846.32 1339 -847 1339 C-847.33 1341.31 -847.66 1343.62 -848 1346 C-848.66 1346 -849.32 1346 -850 1346 C-850 1347.65 -850 1349.3 -850 1351 C-850.66 1351 -851.32 1351 -852 1351 C-852 1351.66 -852 1352.32 -852 1353 C-852.66 1353 -853.32 1353 -854 1353 C-854.33 1356.3 -854.66 1359.6 -855 1363 C-855.66 1363 -856.32 1363 -857 1363 C-857 1363.66 -857 1364.32 -857 1365 C-857.66 1365 -858.32 1365 -859 1365 C-859.33 1367.31 -859.66 1369.62 -860 1372 C-860.66 1373.65 -861.32 1375.3 -862 1377 C-862.66 1377 -863.32 1377 -864 1377 C-864 1377.99 -864 1378.98 -864 1380 C-864.66 1380 -865.32 1380 -866 1380 C-866 1381.98 -866 1383.96 -866 1386 C-866.66 1386.33 -867.32 1386.66 -868 1387 C-868.33 1388.32 -868.66 1389.64 -869 1391 C-869.66 1391 -870.32 1391 -871 1391 C-871.33 1392.65 -871.66 1394.3 -872 1396 C-872.66 1397.32 -873.32 1398.64 -874 1400 C-874.66 1400 -875.32 1400 -876 1400 C-876 1400.99 -876 1401.98 -876 1403 C-876.66 1403 -877.32 1403 -878 1403 C-878.33 1404.65 -878.66 1406.3 -879 1408 C-879.33 1408.66 -879.66 1409.32 -880 1410 C-880.66 1410 -881.32 1410 -882 1410 C-882.33 1411.65 -882.66 1413.3 -883 1415 C-883.66 1415 -884.32 1415 -885 1415 C-885 1415.66 -885 1416.32 -885 1417 C-885.66 1417 -886.32 1417 -887 1417 C-887.33 1418.65 -887.66 1420.3 -888 1422 C-888.66 1422 -889.32 1422 -890 1422 C-890 1423.32 -890 1424.64 -890 1426 C-890.66 1426 -891.32 1426 -892 1426 C-892.33 1426.99 -892.66 1427.98 -893 1429 C-893.66 1429 -894.32 1429 -895 1429 C-895 1430.32 -895 1431.64 -895 1433 C-895.99 1433.66 -896.98 1434.32 -898 1435 C-898.33 1435.99 -898.66 1436.98 -899 1438 C-899.99 1438.99 -900.98 1439.98 -902 1441 C-902.66 1442.32 -903.32 1443.64 -904 1445 C-904.99 1445.99 -905.98 1446.98 -907 1448 C-907.66 1449.32 -908.32 1450.64 -909 1452 C-910.32 1452 -911.64 1452 -913 1452 C-913 1453.65 -913 1455.3 -913 1457 C-913.66 1457 -914.32 1457 -915 1457 C-915 1457.66 -915 1458.32 -915 1459 C-915.99 1459 -916.98 1459 -918 1459 C-918 1459.99 -918 1460.98 -918 1462 C-918.66 1462 -919.32 1462 -920 1462 C-920 1462.66 -920 1463.32 -920 1464 C-920.99 1464 -921.98 1464 -923 1464 C-923 1464.99 -923 1465.98 -923 1467 C-923.66 1467 -924.32 1467 -925 1467 C-925 1467.66 -925 1468.32 -925 1469 C-925.66 1469 -926.32 1469 -927 1469 C-927 1469.66 -927 1470.32 -927 1471 C-927.99 1471 -928.98 1471 -930 1471 C-930 1471.99 -930 1472.98 -930 1474 C-930.66 1474 -931.32 1474 -932 1474 C-932 1474.66 -932 1475.32 -932 1476 C-932.99 1476 -933.98 1476 -935 1476 C-935 1476.99 -935 1477.98 -935 1479 C-935.66 1479 -936.32 1479 -937 1479 C-937 1479.66 -937 1480.32 -937 1481 C-937.99 1481 -938.98 1481 -940 1481 C-940 1481.66 -940 1482.32 -940 1483 C-940.66 1483 -941.32 1483 -942 1483 C-942 1483.99 -942 1484.98 -942 1486 C-945 1488 -945 1488 -948 1488 C-948.33 1489.32 -948.66 1490.64 -949 1492 C-950.65 1492.33 -952.3 1492.66 -954 1493 C-954.33 1494.32 -954.66 1495.64 -955 1497 C-956.65 1497.99 -958.3 1498.98 -960 1500 C-960.33 1500.66 -960.66 1501.32 -961 1502 C-961.66 1502 -962.32 1502 -963 1502 C-963 1502.66 -963 1503.32 -963 1504 C-965.97 1505.485 -965.97 1505.485 -969 1507 C-969.99 1508.32 -970.98 1509.64 -972 1511 C-974.31 1511.33 -976.62 1511.66 -979 1512 C-979.33 1513.32 -979.66 1514.64 -980 1516 C-980.99 1516 -981.98 1516 -983 1516 C-983 1516.66 -983 1517.32 -983 1518 C-984.98 1518.33 -986.96 1518.66 -989 1519 C-989 1519.66 -989 1520.32 -989 1521 C-989.66 1521 -990.32 1521 -991 1521 C-991 1521.66 -991 1522.32 -991 1523 C-992.65 1523 -994.3 1523 -996 1523 C-996.33 1523.99 -996.66 1524.98 -997 1526 C-997.99 1526 -998.98 1526 -1000 1526 C-1000 1526.66 -1000 1527.32 -1000 1528 C-1008 1532 -1008 1532 -1013 1533 C-1013 1533.66 -1013 1534.32 -1013 1535 C-1014.65 1535 -1016.3 1535 -1018 1535 C-1018 1535.66 -1018 1536.32 -1018 1537 C-1019.32 1537.33 -1020.64 1537.66 -1022 1538 C-1022 1538.66 -1022 1539.32 -1022 1540 C-1024.64 1540 -1027.28 1540 -1030 1540 C-1030 1540.66 -1030 1541.32 -1030 1542 C-1030.66 1542 -1031.32 1542 -1032 1542 C-1032 1542.66 -1032 1543.32 -1032 1544 C-1035.96 1545.32 -1039.92 1546.64 -1044 1548 C-1044.99 1548.66 -1045.98 1549.32 -1047 1550 C-1051 1552 -1051 1552 -1059 1552 C-1059 1552.66 -1059 1553.32 -1059 1554 C-1059.66 1554 -1060.32 1554 -1061 1554 C-1061 1554.66 -1061 1555.32 -1061 1556 C-1065.95 1556.99 -1070.9 1557.98 -1076 1559 C-1076 1559.66 -1076 1560.32 -1076 1561 C-1077.65 1561 -1079.3 1561 -1081 1561 C-1081 1561.66 -1081 1562.32 -1081 1563 C-1085.62 1563.66 -1090.24 1564.32 -1095 1565 C-1095.66 1565.99 -1096.32 1566.98 -1097 1568 C-1098.98 1568 -1100.96 1568 -1103 1568 C-1103 1568.66 -1103 1569.32 -1103 1570 C-1107.95 1570.33 -1112.9 1570.66 -1118 1571 C-1118 1571.66 -1118 1572.32 -1118 1573 C-1120.64 1573 -1123.28 1573 -1126 1573 C-1126 1573.66 -1126 1574.32 -1126 1575 C-1132.27 1575.66 -1138.54 1576.32 -1145 1577 C-1147.97 1577.99 -1150.94 1578.98 -1154 1580 C-1157.96 1580.33 -1161.92 1580.66 -1166 1581 C-1166 1581.33 -1166 1581.66 -1166 1582 C-1186.46 1582 -1206.92 1582 -1228 1582 C-1228 1581.34 -1228 1580.68 -1228 1580 C-1228.66 1580 -1229.32 1580 -1230 1580 C-1230 1579.34 -1230 1578.68 -1230 1578 C-1230.66 1578 -1231.32 1578 -1232 1578 C-1232 1572 -1232 1572 -1230 1566 C-1229.34 1566 -1228.68 1566 -1228 1566 C-1228 1562.37 -1228 1558.74 -1228 1555 C-1227.505 1551.535 -1227.505 1551.535 -1227 1548 C-1226.67 1548 -1226.34 1548 -1226 1548 C-1225.505 1543.05 -1225.505 1543.05 -1225 1538 C-1224.34 1538 -1223.68 1538 -1223 1538 C-1222.01 1528.43 -1221.02 1518.86 -1220 1509 C-1219.34 1509 -1218.68 1509 -1218 1509 C-1218 1507.35 -1218 1505.7 -1218 1504 C-1217.34 1504 -1216.68 1504 -1216 1504 C-1216 1499.38 -1216 1494.76 -1216 1490 C-1215.01 1486.535 -1215.01 1486.535 -1214 1483 C-1213.505 1478.05 -1213.505 1478.05 -1213 1473 C-1212.01 1469.535 -1212.01 1469.535 -1211 1466 C-1210.01 1458.74 -1209.02 1451.48 -1208 1444 C-1207.34 1442.02 -1206.68 1440.04 -1206 1438 C-1205.34 1438 -1204.68 1438 -1204 1438 C-1204 1433.38 -1204 1428.76 -1204 1424 C-1203.34 1424 -1202.68 1424 -1202 1424 C-1202 1420.7 -1202 1417.4 -1202 1414 C-1201.67 1412.02 -1201.34 1410.04 -1201 1408 C-1200.34 1408 -1199.68 1408 -1199 1408 C-1199 1403.71 -1199 1399.42 -1199 1395 C-1197.515 1390.545 -1197.515 1390.545 -1196 1386 C-1195.34 1380.39 -1194.68 1374.78 -1194 1369 C-1193.67 1369 -1193.34 1369 -1193 1369 C-1192.67 1366.03 -1192.34 1363.06 -1192 1360 C-1191.34 1360 -1190.68 1360 -1190 1360 C-1190 1356.37 -1190 1352.74 -1190 1349 C-1189.34 1349 -1188.68 1349 -1188 1349 C-1187.67 1341.74 -1187.34 1334.48 -1187 1327 C-1186.34 1327 -1185.68 1327 -1185 1327 C-1185 1323.7 -1185 1320.4 -1185 1317 C-1184.34 1315.68 -1183.68 1314.36 -1183 1313 C-1180.79285226 1302.88754837 -1180.79285226 1302.88754837 -1180 1292 C-1179.34 1292 -1178.68 1292 -1178 1292 C-1178 1288.04 -1178 1284.08 -1178 1280 C-1177.34 1280 -1176.68 1280 -1176 1280 C-1175.67 1274.72 -1175.34 1269.44 -1175 1264 C-1174.34 1264 -1173.68 1264 -1173 1264 C-1173 1260.7 -1173 1257.4 -1173 1254 C-1172.01 1251.69 -1171.02 1249.38 -1170 1247 C-1169.34 1238.75 -1168.68 1230.5 -1168 1222 C-1167.67 1222 -1167.34 1222 -1167 1222 C-1166.505 1218.535 -1166.505 1218.535 -1166 1215 C-1165.34 1215 -1164.68 1215 -1164 1215 C-1163.95101562 1214.27039062 -1163.90203125 1213.54078125 -1163.8515625 1212.7890625 C-1163.1621056 1203.16044025 -1162.10838733 1193.58808845 -1161 1184 C-1160.67 1184 -1160.34 1184 -1160 1184 C-1159.67 1182.35 -1159.34 1180.7 -1159 1179 C-1158.34 1179 -1157.68 1179 -1157 1179 C-1157 1175.04 -1157 1171.08 -1157 1167 C-1156.67 1166.34 -1156.34 1165.68 -1156 1165 C-1155.67 1161.04 -1155.34 1157.08 -1155 1153 C-1154.67 1152.01 -1154.34 1151.02 -1154 1150 C-1153.34 1150 -1152.68 1150 -1152 1150 C-1152 1145.38 -1152 1140.76 -1152 1136 C-1151.34 1133.03 -1150.68 1130.06 -1150 1127 C-1149.67 1124.03 -1149.34 1121.06 -1149 1118 C-1148.01 1116.02 -1147.02 1114.04 -1146 1112 C-1145.67 1107.38 -1145.34 1102.76 -1145 1098 C-1144.34 1098 -1143.68 1098 -1143 1098 C-1143 1094.04 -1143 1090.08 -1143 1086 C-1142.67 1084.35 -1142.34 1082.7 -1142 1081 C-1141.34 1081 -1140.68 1081 -1140 1081 C-1140 1076.71 -1140 1072.42 -1140 1068 C-1139.67 1067.67 -1139.34 1067.34 -1139 1067 C-1137.20796488 1058.01728306 -1135.56291453 1049.16191918 -1135 1040 C-1134.34 1040 -1133.68 1040 -1133 1040 C-1133 1037.36 -1133 1034.72 -1133 1032 C-1132.34 1032 -1131.68 1032 -1131 1032 C-1131 1028.37 -1131 1024.74 -1131 1021 C-1130.34 1021 -1129.68 1021 -1129 1021 C-1128.67 1015.06 -1128.34 1009.12 -1128 1003 C-1127.67 1002.67 -1127.34 1002.34 -1127 1002 C-1126.67 998.7 -1126.34 995.4 -1126 992 C-1125.34 992 -1124.68 992 -1124 992 C-1122.85529281 984.1860521 -1122.85529281 984.1860521 -1123 977 C-1121 965 -1121 965 -1120 964 C-1119.67 961.36 -1119.34 958.72 -1119 956 C-1118.34 956 -1117.68 956 -1117 956 C-1116.67 949.73 -1116.34 943.46 -1116 937 C-1115.34 937 -1114.68 937 -1114 937 C-1114 933.37 -1114 929.74 -1114 926 C-1113.34 926 -1112.68 926 -1112 926 C-1112 924.35 -1112 922.7 -1112 921 C-1111.34 921 -1110.68 921 -1110 921 C-1110.01160156 920.26136719 -1110.02320313 919.52273438 -1110.03515625 918.76171875 C-1110.09729577 911.77546152 -1109.76544986 904.9437237 -1109 898 C-1108.34 898 -1107.68 898 -1107 898 C-1107 895.69 -1107 893.38 -1107 891 C-1106.34 891 -1105.68 891 -1105 891 C-1105 887.7 -1105 884.4 -1105 881 C-1104.34 878.03 -1103.68 875.06 -1103 872 C-1102.67 869.03 -1102.34 866.06 -1102 863 C-1101.67 863 -1101.34 863 -1101 863 C-1098.51329142 856.30333869 -1098.51329142 856.30333869 -1098 846 C-1097.67 845.67 -1097.34 845.34 -1097 845 C-1096.67 841.37 -1096.34 837.74 -1096 834 C-1095.67 833.34 -1095.34 832.68 -1095 832 C-1094.34 832 -1093.68 832 -1093 832 C-1093 827.38 -1093 822.76 -1093 818 C-1092.67 817.67 -1092.34 817.34 -1092 817 C-1091.34 812.05 -1090.68 807.1 -1090 802 C-1089.67 801.67 -1089.34 801.34 -1089 801 C-1088.67 798.03 -1088.34 795.06 -1088 792 C-1087.34 792 -1086.68 792 -1086 792 C-1086 788.7 -1086 785.4 -1086 782 C-1085.67 781.34 -1085.34 780.68 -1085 780 C-1084.67 776.7 -1084.34 773.4 -1084 770 C-1083.67 768.68 -1083.34 767.36 -1083 766 C-1082.34 766 -1081.68 766 -1081 766 C-1081 761.05 -1081 756.1 -1081 751 C-1080.34 751 -1079.68 751 -1079 751 C-1079 747.7 -1079 744.4 -1079 741 C-1078.34 739.68 -1077.68 738.36 -1077 737 C-1076.67 732.05 -1076.34 727.1 -1076 722 C-1075.34 722 -1074.68 722 -1074 722 C-1074 720.02 -1074 718.04 -1074 716 C-1073.34 716 -1072.68 716 -1072 716 C-1072 712.04 -1072 708.08 -1072 704 C-1071.34 704 -1070.68 704 -1070 704 C-1069.67 698.39 -1069.34 692.78 -1069 687 C-1068.67 687 -1068.34 687 -1068 687 C-1067.67 683.04 -1067.34 679.08 -1067 675 C-1066.34 675 -1065.68 675 -1065 675 C-1063.83500842 668.02357023 -1063.83500842 668.02357023 -1064 661 C-1063.34 658.03 -1062.68 655.06 -1062 652 C-1061.34 652 -1060.68 652 -1060 652 C-1060 649.69 -1060 647.38 -1060 645 C-1059.34 645 -1058.68 645 -1058 645 C-1057.67 640.71 -1057.34 636.42 -1057 632 C-1056.67 631.67 -1056.34 631.34 -1056 631 C-1055.67 628.36 -1055.34 625.72 -1055 623 C-1053.515 620.03 -1053.515 620.03 -1052 617 C-1051.34 611.72 -1050.68 606.44 -1050 601 C-1049.34 600.01 -1048.68 599.02 -1048 598 C-1047.34 598 -1046.68 598 -1046 598 C-1045.87625 597.05125 -1045.7525 596.1025 -1045.625 595.125 C-1044.95234946 590.37745198 -1043.97271759 585.69359847 -1043 581 C-1042.34 581 -1041.68 581 -1041 581 C-1039.68 575.72 -1038.36 570.44 -1037 565 C-1036.34 564.34 -1035.68 563.68 -1035 563 C-1034.67 561.02 -1034.34 559.04 -1034 557 C-1033.34 557 -1032.68 557 -1032 557 C-1031.67 554.36 -1031.34 551.72 -1031 549 C-1030.34 549 -1029.68 549 -1029 549 C-1029 547.35 -1029 545.7 -1029 544 C-1028.34 544 -1027.68 544 -1027 544 C-1027 542.35 -1027 540.7 -1027 539 C-1026.34 539 -1025.68 539 -1025 539 C-1024.87625 538.319375 -1024.7525 537.63875 -1024.625 536.9375 C-1023.90899123 533.5722588 -1022.97054875 530.29986575 -1022 527 C-1021.34 527 -1020.68 527 -1020 527 C-1019.67 525.35 -1019.34 523.7 -1019 522 C-1018.34 522 -1017.68 522 -1017 522 C-1017 520.35 -1017 518.7 -1017 517 C-1016.34 517 -1015.68 517 -1015 517 C-1014.34 514.69 -1013.68 512.38 -1013 510 C-1012.34 510 -1011.68 510 -1011 510 C-1010.67 508.02 -1010.34 506.04 -1010 504 C-1009.34 504 -1008.68 504 -1008 504 C-1008 502.35 -1008 500.7 -1008 499 C-1006.68 498.67 -1005.36 498.34 -1004 498 C-1004.33 496.35 -1004.66 494.7 -1005 493 C-1003.68 491.68 -1002.36 490.36 -1001 489 C-999.35 486.03 -997.7 483.06 -996 480 C-995.34 480 -994.68 480 -994 480 C-994 479.01 -994 478.02 -994 477 C-993.34 477 -992.68 477 -992 477 C-991.67 474.69 -991.34 472.38 -991 470 C-990.01 470 -989.02 470 -988 470 C-987.71125 469.2575 -987.4225 468.515 -987.125 467.75 C-986.17697356 465.43260203 -985.15154089 463.22082885 -984 461 C-983.34 461 -982.68 461 -982 461 C-982 460.01 -982 459.02 -982 458 C-981.34 458 -980.68 458 -980 458 C-980 457.34 -980 456.68 -980 456 C-979.34 456 -978.68 456 -978 456 C-978 454.68 -978 453.36 -978 452 C-976.515 450.515 -976.515 450.515 -975 449 C-974.34 449 -973.68 449 -973 449 C-973 448.01 -973 447.02 -973 446 C-972.34 445.67 -971.68 445.34 -971 445 C-970.34 443.35 -969.68 441.7 -969 440 C-967.68 439.67 -966.36 439.34 -965 439 C-964.34 437.02 -963.68 435.04 -963 433 C-962.01 432.67 -961.02 432.34 -960 432 C-959.34 430.68 -958.68 429.36 -958 428 C-957.34 428 -956.68 428 -956 428 C-956 427.34 -956 426.68 -956 426 C-955.34 426 -954.68 426 -954 426 C-954 425.01 -954 424.02 -954 423 C-953.34 423 -952.68 423 -952 423 C-952 422.34 -952 421.68 -952 421 C-951.01 420.01 -950.02 419.02 -949 418 C-948.34 418 -947.68 418 -947 418 C-947 417.34 -947 416.68 -947 416 C-946.34 416 -945.68 416 -945 416 C-944.34 414.35 -943.68 412.7 -943 411 C-942.01 411 -941.02 411 -940 411 C-939.34 409.35 -938.68 407.7 -938 406 C-937.34 405.34 -936.68 404.68 -936 404 C-935.01 404 -934.02 404 -933 404 C-932.67 402.68 -932.34 401.36 -932 400 C-930.68 399.67 -929.36 399.34 -928 399 C-928 398.34 -928 397.68 -928 397 C-927.34 397 -926.68 397 -926 397 C-925.67 396.01 -925.34 395.02 -925 394 C-923.35 393.34 -921.7 392.68 -920 392 C-919.67 390.68 -919.34 389.36 -919 388 C-916.03 386.515 -916.03 386.515 -913 385 C-912.34 383.68 -911.68 382.36 -911 381 C-909.35 380.67 -907.7 380.34 -906 380 C-905.67 378.68 -905.34 377.36 -905 376 C-904.01 376 -903.02 376 -902 376 C-902 375.34 -902 374.68 -902 374 C-901.01 374 -900.02 374 -899 374 C-898.67 373.01 -898.34 372.02 -898 371 C-897.34 371 -896.68 371 -896 371 C-896 370.34 -896 369.68 -896 369 C-894.68 369 -893.36 369 -892 369 C-891.67 368.01 -891.34 367.02 -891 366 C-889.35 365.34 -887.7 364.68 -886 364 C-886 363.34 -886 362.68 -886 362 C-881 359 -881 359 -879 359 C-879 358.34 -879 357.68 -879 357 C-878.443125 356.731875 -877.88625 356.46375 -877.3125 356.1875 C-874.80287477 354.89877353 -872.40665764 353.47073522 -870 352 C-869.01 352 -868.02 352 -867 352 C-867 351.34 -867 350.68 -867 350 C-866.01 350 -865.02 350 -864 350 C-864 349.34 -864 348.68 -864 348 C-859 345 -859 345 -856 345 C-856 344.34 -856 343.68 -856 343 C-855.34 343 -854.68 343 -854 343 C-854 342.34 -854 341.68 -854 341 C-850.7 340.01 -847.4 339.02 -844 338 C-844 337.34 -844 336.68 -844 336 C-837 333 -837 333 -833 333 C-833 332.34 -833 331.68 -833 331 C-832.34 331 -831.68 331 -831 331 C-831 330.34 -831 329.68 -831 329 C-828.03 328.34 -825.06 327.68 -822 327 C-821.34 326.01 -820.68 325.02 -820 324 C-818.68 324 -817.36 324 -816 324 C-816 323.34 -816 322.68 -816 322 C-815.39671875 321.86722656 -814.7934375 321.73445313 -814.171875 321.59765625 C-813.37265625 321.42105469 -812.5734375 321.24445313 -811.75 321.0625 C-810.56664062 320.80146484 -810.56664062 320.80146484 -809.359375 320.53515625 C-807.23121297 320.052444 -805.11467158 319.53836822 -803 319 C-803 318.34 -803 317.68 -803 317 C-801.68 317 -800.36 317 -799 317 C-799 316.34 -799 315.68 -799 315 C-796.69 314.67 -794.38 314.34 -792 314 C-791.34 313.34 -790.68 312.68 -790 312 C-788.35 312 -786.7 312 -785 312 C-785 311.34 -785 310.68 -785 310 C-781.7 309.67 -778.4 309.34 -775 309 C-775 308.34 -775 307.68 -775 307 C-770 305 -770 305 -765 305 C-765 304.34 -765 303.68 -765 303 C-762.03 302.34 -759.06 301.68 -756 301 C-755.67 300.67 -755.34 300.34 -755 300 C-753.02 300 -751.04 300 -749 300 C-749 299.34 -749 298.68 -749 298 C-745.7 298 -742.4 298 -739 298 C-739 297.34 -739 296.68 -739 296 C-736.03 295.34 -733.06 294.68 -730 294 C-729.67 293.67 -729.34 293.34 -729 293 C-726.69 292.67 -724.38 292.34 -722 292 C-721.67 291.67 -721.34 291.34 -721 291 C-718.69 291 -716.38 291 -714 291 C-714 290.34 -714 289.68 -714 289 C-710.04 288.34 -706.08 287.68 -702 287 C-701.67 286.67 -701.34 286.34 -701 286 C-697.37 286 -693.74 286 -690 286 C-690 285.34 -690 284.68 -690 284 C-684 282 -684 282 -682.2434082 281.83227539 C-679.59951088 281.57832383 -676.95601028 281.32044806 -674.3125 281.0625 C-673.40048828 280.97548828 -672.48847656 280.88847656 -671.54882812 280.79882812 C-670.66259766 280.71181641 -669.77636719 280.62480469 -668.86328125 280.53515625 C-668.05157471 280.456604 -667.23986816 280.37805176 -666.40356445 280.29711914 C-663.90198406 279.98788366 -661.46483559 279.52365768 -659 279 C-659 278.34 -659 277.68 -659 277 C-654.38 276.34 -649.76 275.68 -645 275 C-644.01 274.67 -643.02 274.34 -642 274 C-637.05 274 -632.1 274 -627 274 C-627 273.34 -627 272.68 -627 272 C-616.79324842 266.89662421 -604.38622052 268.75908137 -593 268 C-592.67 267.67 -592.34 267.34 -592 267 C-590.35 267 -588.7 267 -587 267 C-587 266.34 -587 265.68 -587 265 C-582.38 264.67 -577.76 264.34 -573 264 C-573 263.67 -573 263.34 -573 263 C-559.635 262.505 -559.635 262.505 -546 262 C-546 261.34 -546 260.68 -546 260 C-542.37 260 -538.74 260 -535 260 C-535 259.34 -535 258.68 -535 258 C-531.7 257.67 -528.4 257.34 -525 257 C-525 256.67 -525 256.34 -525 256 C-519.06 255.67 -513.12 255.34 -507 255 C-505.35 254.34 -503.7 253.68 -502 253 C-497.38 253 -492.76 253 -488 253 C-488 252.34 -488 251.68 -488 251 C-482.39 250.67 -476.78 250.34 -471 250 C-469.35 249.34 -467.7 248.68 -466 248 C-461.71 248 -457.42 248 -453 248 C-453 247.34 -453 246.68 -453 246 C-450.36 245.67 -447.72 245.34 -445 245 C-445 244.67 -445 244.34 -445 244 C-441.37 243.67 -437.74 243.34 -434 243 C-431.69 242.34 -429.38 241.68 -427 241 C-424.03 241 -421.06 241 -418 241 C-418 240.34 -418 239.68 -418 239 C-414.04 239 -410.08 239 -406 239 C-406 238.34 -406 237.68 -406 237 C-401.71 236.34 -397.42 235.68 -393 235 C-392.67 234.67 -392.34 234.34 -392 234 C-388.7 234 -385.4 234 -382 234 C-382 233.34 -382 232.68 -382 232 C-380.68 232 -379.36 232 -378 232 C-378 231.34 -378 230.68 -378 230 C-374.04 229.34 -370.08 228.68 -366 228 C-365.67 227.67 -365.34 227.34 -365 227 C-362.03 227 -359.06 227 -356 227 C-356 226.34 -356 225.68 -356 225 C-351.545 224.01 -351.545 224.01 -347 223 C-346.67 222.67 -346.34 222.34 -346 222 C-342.37 222 -338.74 222 -335 222 C-335 221.34 -335 220.68 -335 220 C-334.34 220 -333.68 220 -333 220 C-333 219.34 -333 218.68 -333 218 C-317 215 -317 215 -314 215 C-314 214.34 -314 213.68 -314 213 C-312.35 212.67 -310.7 212.34 -309 212 C-309 211.67 -309 211.34 -309 211 C-303.555 210.01 -303.555 210.01 -298 209 C-297.01 208.67 -296.02 208.34 -295 208 C-295 207.34 -295 206.68 -295 206 C-293.02 206 -291.04 206 -289 206 C-289 205.34 -289 204.68 -289 204 C-285.7 203.67 -282.4 203.34 -279 203 C-279 202.34 -279 201.68 -279 201 C-277.02 201 -275.04 201 -273 201 C-273 200.34 -273 199.68 -273 199 C-269.7 198.01 -266.4 197.02 -263 196 C-261.515 195.01 -261.515 195.01 -260 194 C-258.68 194 -257.36 194 -256 194 C-256 193.34 -256 192.68 -256 192 C-253.69 191.34 -251.38 190.68 -249 190 C-248.67 189.67 -248.34 189.34 -248 189 C-246.35 189 -244.7 189 -243 189 C-243 188.34 -243 187.68 -243 187 C-241.35 186.67 -239.7 186.34 -238 186 C-236.68 185.34 -235.36 184.68 -234 184 C-231.03 183.01 -231.03 183.01 -228 182 C-228 181.34 -228 180.68 -228 180 C-226.35 179.67 -224.7 179.34 -223 179 C-221.515 178.01 -221.515 178.01 -220 177 C-216 175 -216 175 -210 175 C-210 174.34 -210 173.68 -210 173 C-209.34 173 -208.68 173 -208 173 C-208 172.34 -208 171.68 -208 171 C-204.7 170.01 -201.4 169.02 -198 168 C-198 167.34 -198 166.68 -198 166 C-192 163 -192 163 -187 163 C-186.67 161.68 -186.34 160.36 -186 159 C-182.37 158.01 -178.74 157.02 -175 156 C-175 155.34 -175 154.68 -175 154 C-174.34 154 -173.68 154 -173 154 C-173 153.34 -173 152.68 -173 152 C-170.69 151.67 -168.38 151.34 -166 151 C-166 150.34 -166 149.68 -166 149 C-165.01 149 -164.02 149 -163 149 C-163 148.34 -163 147.68 -163 147 C-161 145 -161 145 -155 144 C-155 143.34 -155 142.68 -155 142 C-153 140 -153 140 -147 139 C-147 138.34 -147 137.68 -147 137 C-146.34 137 -145.68 137 -145 137 C-145 136.34 -145 135.68 -145 135 C-144.01 135 -143.02 135 -142 135 C-142 134.34 -142 133.68 -142 133 C-139.34771188 131.92474806 -136.71631546 130.90543849 -134 130 C-134 129.34 -134 128.68 -134 128 C-132.68 128 -131.36 128 -130 128 C-130 127.34 -130 126.68 -130 126 C-126 123 -126 123 -123 123 C-123 122.34 -123 121.68 -123 121 C-122.01 121 -121.02 121 -120 121 C-120 120.34 -120 119.68 -120 119 C-116 116 -116 116 -113 116 C-112.34 114.68 -111.68 113.36 -111 112 C-109.35 111.67 -107.7 111.34 -106 111 C-105.67 109.68 -105.34 108.36 -105 107 C-100 104 -100 104 -98 104 C-98 103.34 -98 102.68 -98 102 C-97.34 102 -96.68 102 -96 102 C-96 101.34 -96 100.68 -96 100 C-94.35 99.67 -92.7 99.34 -91 99 C-90.67 97.68 -90.34 96.36 -90 95 C-89.34 95 -88.68 95 -88 95 C-88 94.34 -88 93.68 -88 93 C-86.35 92.67 -84.7 92.34 -83 92 C-83 90.68 -83 89.36 -83 88 C-81.68 88 -80.36 88 -79 88 C-79 87.34 -79 86.68 -79 86 C-78.01 85.01 -77.02 84.02 -76 83 C-75.34 83 -74.68 83 -74 83 C-74 82.34 -74 81.68 -74 81 C-73.01 81 -72.02 81 -71 81 C-71 80.34 -71 79.68 -71 79 C-70.34 79 -69.68 79 -69 79 C-69 78.01 -69 77.02 -69 76 C-68.01 76 -67.02 76 -66 76 C-66 75.34 -66 74.68 -66 74 C-65.34 74 -64.68 74 -64 74 C-64 73.01 -64 72.02 -64 71 C-63.01 71 -62.02 71 -61 71 C-61 70.34 -61 69.68 -61 69 C-60.34 69 -59.68 69 -59 69 C-59 68.01 -59 67.02 -59 66 C-54 62 -54 62 -52 62 C-51.67 61.01 -51.34 60.02 -51 59 C-50.01 58.34 -49.02 57.68 -48 57 C-47.67 56.01 -47.34 55.02 -47 54 C-45.35 53.01 -43.7 52.02 -42 51 C-41.34 49.35 -40.68 47.7 -40 46 C-38.515 44.515 -38.515 44.515 -37 43 C-35.68 41.35 -34.36 39.7 -33 38 C-32.34 38 -31.68 38 -31 38 C-30.71125 37.2575 -30.4225 36.515 -30.125 35.75 C-29.17697356 33.43260203 -28.15154089 31.22082885 -27 29 C-26.01 29 -25.02 29 -24 29 C-23.855625 28.401875 -23.71125 27.80375 -23.5625 27.1875 C-23.1127561 25.43849596 -22.57107659 23.71322977 -22 22 C-21.34 21.67 -20.68 21.34 -20 21 C-19.67 19.68 -19.34 18.36 -19 17 C-18.34 17 -17.68 17 -17 17 C-16.67 15.68 -16.34 14.36 -16 13 C-15.34 12.01 -14.68 11.02 -14 10 C-13.34 10 -12.68 10 -12 10 C-12 8.35 -12 6.7 -12 5 C-11.34 5 -10.68 5 -10 5 C-9.34 3.68 -8.68 2.36 -8 1 C-4 -1 -4 -1 0 0 Z M-374 532 C-371.69 532 -369.38 532 -367 532 C-367.33 532.66 -367.66 533.32 -368 534 C-369.65 534 -371.3 534 -373 534 C-373.33 533.34 -373.66 532.68 -374 532 Z M-398 537 C-396.02 537 -394.04 537 -392 537 C-392 537.66 -392 538.32 -392 539 C-393.98 539 -395.96 539 -398 539 C-398 538.34 -398 537.68 -398 537 Z M-426 544 C-422 545 -422 545 -422 545 Z M-464 549 C-461.03 549 -458.06 549 -455 549 C-455 549.66 -455 550.32 -455 551 C-457.97 551 -460.94 551 -464 551 C-464 550.34 -464 549.68 -464 549 Z M-509 555 C-506 556 -506 556 -506 556 Z M-486 595 C-485.01 595 -484.02 595 -483 595 C-483.33 596.65 -483.66 598.3 -484 600 C-484.99 599.67 -485.98 599.34 -487 599 C-486.67 597.68 -486.34 596.36 -486 595 Z M-472 595 C-470.35 595.33 -468.7 595.66 -467 596 C-467 596.99 -467 597.98 -467 599 C-468.65 599.33 -470.3 599.66 -472 600 C-472.33 598.68 -472.66 597.36 -473 596 C-472.67 595.67 -472.34 595.34 -472 595 Z M-522 603 C-519.525 603.495 -519.525 603.495 -517 604 C-517.33 605.65 -517.66 607.3 -518 609 C-519.32 609 -520.64 609 -522 609 C-522 607.02 -522 605.04 -522 603 Z M-514 605 C-512.68 605 -511.36 605 -510 605 C-510 606.65 -510 608.3 -510 610 C-511.65 609.67 -513.3 609.34 -515 609 C-514.67 607.68 -514.34 606.36 -514 605 Z M-689 647 C-688.34 647 -687.68 647 -687 647 C-687.66 648.32 -688.32 649.64 -689 651 C-689 649.68 -689 648.36 -689 647 Z M-614 664 C-613.01 664.33 -612.02 664.66 -611 665 C-611 666.32 -611 667.64 -611 669 C-612.65 669 -614.3 669 -616 669 C-616 667.68 -616 666.36 -616 665 C-615.34 664.67 -614.68 664.34 -614 664 Z M-706 682 C-705 686 -705 686 -705 686 Z M-712 701 C-711.34 701 -710.68 701 -710 701 C-710 701.66 -710 702.32 -710 703 C-710.66 703 -711.32 703 -712 703 C-712 702.34 -712 701.68 -712 701 Z M-708 742 C-706.35 742 -704.7 742 -703 742 C-703 743.32 -703 744.64 -703 746 C-704.65 746 -706.3 746 -708 746 C-708 744.68 -708 743.36 -708 742 Z M-494 996 C-492.68 996 -491.36 996 -490 996 C-490 996.66 -490 997.32 -490 998 C-491.98 998.99 -491.98 998.99 -494 1000 C-494 998.68 -494 997.36 -494 996 Z M-508 997 C-505.525 997.495 -505.525 997.495 -503 998 C-503.33 999.32 -503.66 1000.64 -504 1002 C-505.32 1002 -506.64 1002 -508 1002 C-508 1000.35 -508 998.7 -508 997 Z M-535 1004 C-533.68 1004 -532.36 1004 -531 1004 C-531 1004.99 -531 1005.98 -531 1007 C-532.32 1007 -533.64 1007 -535 1007 C-535 1006.01 -535 1005.02 -535 1004 Z M-709 1049 C-707.35 1049.33 -705.7 1049.66 -704 1050 C-704 1051.32 -704 1052.64 -704 1054 C-705.98 1054 -707.96 1054 -710 1054 C-709.67 1052.35 -709.34 1050.7 -709 1049 Z M-815 1251 C-815.33 1252.65 -815.66 1254.3 -816 1256 C-817.65 1256.33 -819.3 1256.66 -821 1257 C-821 1255.35 -821 1253.7 -821 1252 C-818 1251 -818 1251 -815 1251 Z M-916 1461 C-915.01 1461 -914.02 1461 -913 1461 C-913 1461.66 -913 1462.32 -913 1463 C-913.99 1463 -914.98 1463 -916 1463 C-916 1462.34 -916 1461.68 -916 1461 Z M-940 1484 C-939.34 1484 -938.68 1484 -938 1484 C-938.66 1485.65 -939.32 1487.3 -940 1489 C-940.99 1489.33 -941.98 1489.66 -943 1490 C-943.309375 1490.78375 -943.61875 1491.5675 -943.9375 1492.375 C-945 1495 -945 1495 -946 1497 C-947.98 1497.33 -949.96 1497.66 -952 1498 C-950 1493 -950 1493 -945 1490 C-944.01 1488.68 -943.02 1487.36 -942 1486 C-941.34 1486 -940.68 1486 -940 1486 C-940 1485.34 -940 1484.68 -940 1484 Z M-1007 1532 C-1005.68 1532 -1004.36 1532 -1003 1532 C-1003 1533.32 -1003 1534.64 -1003 1536 C-1004.98 1536.33 -1006.96 1536.66 -1009 1537 C-1008 1533 -1008 1533 -1007 1532 Z M-1010 1535 C-1010 1536.65 -1010 1538.3 -1010 1540 C-1011.65 1540 -1013.3 1540 -1015 1540 C-1015 1538.68 -1015 1537.36 -1015 1536 C-1013 1535 -1013 1535 -1010 1535 Z M-1020 1538 C-1018.68 1538.33 -1017.36 1538.66 -1016 1539 C-1016.66 1540.32 -1017.32 1541.64 -1018 1543 C-1019.32 1543 -1020.64 1543 -1022 1543 C-1022 1543.99 -1022 1544.98 -1022 1546 C-1023.32 1546.33 -1024.64 1546.66 -1026 1547 C-1026.33 1545.35 -1026.66 1543.7 -1027 1542 C-1025.35 1542 -1023.7 1542 -1022 1542 C-1021.34 1540.68 -1020.68 1539.36 -1020 1538 Z M-1031 1544 C-1029.68 1544.66 -1028.36 1545.32 -1027 1546 C-1027.33 1546.99 -1027.66 1547.98 -1028 1549 C-1029.32 1548.67 -1030.64 1548.34 -1032 1548 C-1031.67 1546.68 -1031.34 1545.36 -1031 1544 Z M-1076 1562 C-1074.02 1562.495 -1074.02 1562.495 -1072 1563 C-1072 1563.99 -1072 1564.98 -1072 1566 C-1073.65 1566 -1075.3 1566 -1077 1566 C-1076.67 1564.68 -1076.34 1563.36 -1076 1562 Z M-1068 1562 C-1066.68 1562.33 -1065.36 1562.66 -1064 1563 C-1064 1563.66 -1064 1564.32 -1064 1565 C-1065.32 1565 -1066.64 1565 -1068 1565 C-1068 1564.01 -1068 1563.02 -1068 1562 Z " fill="#A264EF" transform="translate(1640,376)"/>
</svg>
